<svg xmlns="http://www.w3.org/2000/svg" xmlns:xlink="http://www.w3.org/1999/xlink" xmlns:sketch="http://www.bohemiancoding.com/sketch/ns" viewBox="0 0 100 100" version="1.1" x="0px" y="0px"><title>5555</title><desc>Created with Sketch.</desc><g stroke="none" stroke-width="1" fill="none" fill-rule="evenodd" sketch:type="MSPage"><path d="M56.4875,29.97125 L56.4875,23.405 L70.085,37.0025 L56.4875,37.0025 L56.4875,29.97125 L56.4875,29.97125 L56.4875,29.97125 L56.4875,29.97125 Z M47.7926961,62.9566262 L44.2005421,59.3644722 C43.4686865,58.6326167 42.2833988,58.629965 41.5488916,59.3644722 C40.8170361,60.0963277 40.8170361,61.2842671 41.5488916,62.0161226 L49.6682453,70.1354763 L57.7875989,62.0161226 C58.5194544,61.2842671 58.5194544,60.0963277 57.7875989,59.3644722 C57.0557434,58.6326167 55.867804,58.6326167 55.1359484,59.3644722 L51.5426961,62.9577246 L51.5426961,50.875 C51.5426961,49.84 50.7064461,49 49.6676961,49 C48.6326961,49 47.7926961,49.84 47.7926961,50.875 L47.7926961,62.9566262 L47.7926961,62.9566262 L47.7926961,62.9566262 L47.7926961,62.9566262 Z M76.44125,38.6375 C76.43,38.555 76.41125,38.47625 76.3925,38.3975 C76.30625,38.08625 76.175,37.78625 75.93875,37.55 L75.935,37.54625 L55.94375,17.555 L55.94,17.55125 C55.7,17.315 55.4,17.18 55.08875,17.0975 C55.01375,17.07875 54.93875,17.06375 54.86375,17.0525 C54.7775,17.04125 54.7025,17 54.6125,17 L24.875,17 C23.84,17 23,17.84 23,18.875 L23,81.49625 C23,82.53125 23.84,83.37125 24.875,83.37125 L74.61125,83.37125 C75.65,83.37125 76.48625,82.53125 76.48625,81.49625 L76.48625,38.8775 C76.48625,38.79125 76.4525,38.72 76.44125,38.6375 L76.44125,38.6375 L76.44125,38.6375 L76.44125,38.6375 Z" fill="white" sketch:type="MSShapeGroup"/></g></svg>