<svg xmlns="http://www.w3.org/2000/svg" viewBox="0 0 50 62.5" fill="#a5dc86" x="0px" y="0px"><path fill-rule="evenodd" clip-rule="evenodd" d="M46 25C46 36.598 36.598 46 25 46C13.402 46 4 36.598 4 25C4 13.402 13.402 4 25 4C36.598 4 46 13.402 46 25ZM48 25C48 37.7025 37.7025 48 25 48C12.2975 48 2 37.7025 2 25C2 12.2975 12.2975 2 25 2C37.7025 2 48 12.2975 48 25ZM14.7123 23.6281C15.1 23.2446 15.7242 23.2454 16.111 23.6298L22.2305 29.7124L33.8927 18.1933C34.2811 17.8097 34.9063 17.8115 35.2925 18.1973C35.6824 18.5869 35.6805 19.2195 35.2881 19.6067L23.3104 31.4274C22.7083 32.0215 21.7401 32.02 21.14 31.4239L14.7109 25.0388C14.3193 24.6499 14.32 24.0163 14.7123 23.6281Z" fill="#a5dc86"/></svg>